REM DIRINDEX 1\6,1\2\7,1\2\8,1\2\9,1\3\10,1\3\11,1\4\12,1\4\13,1\4\14,1\5\15,1\5\16,1\5\17
REM DIRNAME cjc040,folder01,folder02,folder03,folder04,folder05,folder06,folder07,folder08,folder09,folder10,folder11,folder12,folder13,folder14,folder15,folder16
TITLE ""
FILE "P2Q_t_0143-0160.mp3" MP3
  TRACK 01 AUDIO
    TITLE "10:cjc040_1935"
    INDEX 01 00:00:00
  TRACK 02 AUDIO
    TITLE "0:"
    INDEX 01 00:01:01
  TRACK 03 AUDIO
    TITLE "11:cjc040_1936"
    INDEX 01 00:01:56
  TRACK 04 AUDIO
    TITLE "0:"
    INDEX 01 00:02:55
  TRACK 05 AUDIO
    TITLE "10:cjc040_1937"
    INDEX 01 00:03:39
  TRACK 06 AUDIO
    TITLE "0:"
    INDEX 01 00:04:58
  TRACK 07 AUDIO
    TITLE "11:cjc040_1938"
    INDEX 01 00:05:40
  TRACK 08 AUDIO
    TITLE "0:"
    INDEX 01 00:06:43
  TRACK 09 AUDIO
    TITLE "10:cjc040_1939"
    INDEX 01 00:07:19
  TRACK 10 AUDIO
    TITLE "0:"
    INDEX 01 00:08:21
  TRACK 11 AUDIO
    TITLE "11:cjc040_1940"
    INDEX 01 00:08:73
  TRACK 12 AUDIO
    TITLE "0:"
    INDEX 01 00:13:04
  TRACK 13 AUDIO
    TITLE "10:cjc040_1941"
    INDEX 01 00:13:55
  TRACK 14 AUDIO
    TITLE "0:"
    INDEX 01 00:15:21
  TRACK 15 AUDIO
    TITLE "11:cjc040_1942"
    INDEX 01 00:15:74
  TRACK 16 AUDIO
    TITLE "0:"
    INDEX 01 00:17:10
  TRACK 17 AUDIO
    TITLE "10:cjc040_1943"
    INDEX 01 00:17:65
  TRACK 18 AUDIO
    TITLE "0:"
    INDEX 01 00:18:66
  TRACK 19 AUDIO
    TITLE "11:cjc040_1944"
    INDEX 01 00:19:50
  TRACK 20 AUDIO
    TITLE "0:"
    INDEX 01 00:22:64
  TRACK 21 AUDIO
    TITLE "10:cjc040_1945"
    INDEX 01 00:23:42
  TRACK 22 AUDIO
    TITLE "0:"
    INDEX 01 00:24:63
  TRACK 23 AUDIO
    TITLE "11:cjc040_1946"
    INDEX 01 00:25:45
  TRACK 24 AUDIO
    TITLE "0:"
    INDEX 01 00:27:61
  TRACK 25 AUDIO
    TITLE "10:cjc040_1947"
    INDEX 01 00:28:45
  TRACK 26 AUDIO
    TITLE "0:"
    INDEX 01 00:29:60
  TRACK 27 AUDIO
    TITLE "11:cjc040_1948"
    INDEX 01 00:30:44
  TRACK 28 AUDIO
    TITLE "0:"
    INDEX 01 00:32:03
  TRACK 29 AUDIO
    TITLE "10:cjc040_1949"
    INDEX 01 00:32:62
  TRACK 30 AUDIO
    TITLE "0:"
    INDEX 01 00:33:66
  TRACK 31 AUDIO
    TITLE "11:cjc040_1950"
    INDEX 01 00:34:49
  TRACK 32 AUDIO
    TITLE "0:"
    INDEX 01 00:38:12
  TRACK 33 AUDIO
    TITLE "10:cjc040_1951"
    INDEX 01 00:38:67
  TRACK 34 AUDIO
    TITLE "0:"
    INDEX 01 00:39:66
  TRACK 35 AUDIO
    TITLE "11:cjc040_1952"
    INDEX 01 00:40:48
  TRACK 36 AUDIO
    TITLE "0:"
    INDEX 01 00:42:27
  TRACK 37 AUDIO
    TITLE "10:cjc040_1953"
    INDEX 01 00:43:07
  TRACK 38 AUDIO
    TITLE "0:"
    INDEX 01 00:44:24
  TRACK 39 AUDIO
    TITLE "11:cjc040_1954"
    INDEX 01 00:45:00
  TRACK 40 AUDIO
    TITLE "0:"
    INDEX 01 00:47:01
  TRACK 41 AUDIO
    TITLE "10:cjc040_1955"
    INDEX 01 00:47:52
  TRACK 42 AUDIO
    TITLE "0:"
    INDEX 01 00:48:73
  TRACK 43 AUDIO
    TITLE "11:cjc040_1956"
    INDEX 01 00:49:55
  TRACK 44 AUDIO
    TITLE "0:"
    INDEX 01 00:52:34
  TRACK 45 AUDIO
    TITLE "10:cjc040_1957"
    INDEX 01 00:53:11
  TRACK 46 AUDIO
    TITLE "0:"
    INDEX 01 00:54:09
  TRACK 47 AUDIO
    TITLE "11:cjc040_1958"
    INDEX 01 00:54:64
  TRACK 48 AUDIO
    TITLE "0:"
    INDEX 01 00:58:40
  TRACK 49 AUDIO
    TITLE "10:cjc040_1959"
    INDEX 01 00:59:22
  TRACK 50 AUDIO
    TITLE "0:"
    INDEX 01 01:00:27
  TRACK 51 AUDIO
    TITLE "11:cjc040_1960"
    INDEX 01 01:01:07
  TRACK 52 AUDIO
    TITLE "0:"
    INDEX 01 01:04:64
  TRACK 53 AUDIO
    TITLE "10:cjc040_1961"
    INDEX 01 01:05:40
  TRACK 54 AUDIO
    TITLE "0:"
    INDEX 01 01:06:57
  TRACK 55 AUDIO
    TITLE "11:cjc040_1962"
    INDEX 01 01:07:41
  TRACK 56 AUDIO
    TITLE "0:"
    INDEX 01 01:08:48
  TRACK 57 AUDIO
    TITLE "10:cjc040_1963"
    INDEX 01 01:09:22
  TRACK 58 AUDIO
    TITLE "0:"
    INDEX 01 01:10:28
  TRACK 59 AUDIO
    TITLE "11:cjc040_1964"
    INDEX 01 01:11:02
  TRACK 60 AUDIO
    TITLE "0:"
    INDEX 01 01:14:33
  TRACK 61 AUDIO
    TITLE "10:cjc040_1965"
    INDEX 01 01:15:13
  TRACK 62 AUDIO
    TITLE "0:"
    INDEX 01 01:16:18
  TRACK 63 AUDIO
    TITLE "11:cjc040_1966"
    INDEX 01 01:17:02
  TRACK 64 AUDIO
    TITLE "0:"
    INDEX 01 01:18:39
  TRACK 65 AUDIO
    TITLE "10:cjc040_1967"
    INDEX 01 01:19:21
  TRACK 66 AUDIO
    TITLE "0:"
    INDEX 01 01:20:42
  TRACK 67 AUDIO
    TITLE "11:cjc040_1968"
    INDEX 01 01:21:16
  TRACK 68 AUDIO
    TITLE "0:"
    INDEX 01 01:23:30
  TRACK 69 AUDIO
    TITLE "10:cjc040_1969"
    INDEX 01 01:24:08
  TRACK 70 AUDIO
    TITLE "0:"
    INDEX 01 01:25:27
  TRACK 71 AUDIO
    TITLE "11:cjc040_1970"
    INDEX 01 01:26:07
  TRACK 72 AUDIO
    TITLE "0:"
    INDEX 01 01:30:01
